<svg xmlns="http://www.w3.org/2000/svg" viewBox="0 0 28 28">
  <defs>
    <style>
      .cls-1 {
        fill: #f3f6fa;
      }

      .cls-2 {
        fill: #bec6c7;
      }
    </style>
  </defs>
  <g id="arrow" transform="translate(-322 -355)">
    <circle id="Ellipse_6" data-name="Ellipse 6" class="cls-1" cx="14" cy="14" r="14" transform="translate(322 355)"/>
    <path id="Union_1" data-name="Union 1" class="cls-2" d="M-419.7,6.36l-4.249-4.249a.753.753,0,0,1,0-1.063.752.752,0,0,1,1.063,0l3.717,3.718,3.718-3.718a.751.751,0,0,1,1.062,0,.751.751,0,0,1,0,1.062l-4.249,4.25a.749.749,0,0,1-.531.22A.749.749,0,0,1-419.7,6.36Z" transform="translate(755.172 365.172)"/>
  </g>
</svg>
