<svg xmlns="http://www.w3.org/2000/svg" viewBox="0 0 30 24.434">
  <defs>
    <style>
      .cls-1 {
        fill: #5bbdc4;
      }

      .cls-2 {
        fill: #f3f6fa;
      }
    </style>
  </defs>
  <g id="h_medical" transform="translate(0 -5.38)">
    <path id="Path_23" data-name="Path 23" class="cls-1" d="M16.108,8.329a.9.9,0,0,0,1.5.009,6.867,6.867,0,0,1,5.616-2.958c3.837,0,6.6,3.282,6.948,7.194a7.154,7.154,0,0,1-.225,2.719A12.02,12.02,0,0,1,26.28,21.4l-9.428,8.411L7.583,21.4a12.02,12.02,0,0,1-3.664-6.11,7.154,7.154,0,0,1-.225-2.719C4.042,8.662,6.8,5.38,10.642,5.38A6.553,6.553,0,0,1,16.108,8.329Z" transform="translate(-1.763 0)"/>
    <path id="Path_24" data-name="Path 24" class="cls-2" d="M12.931,26.55H12.9a.517.517,0,0,1-.447-.324L9.792,19.578,7.711,24.057a.519.519,0,0,1-.47.3H.517a.517.517,0,0,1,0-1.034H6.911l2.447-5.266a.508.508,0,0,1,.484-.3.518.518,0,0,1,.466.325l2.7,6.748,2.058-3.7a.517.517,0,0,1,.9-.013l.873,1.467,1.8-8.55a.5.5,0,0,1,.519-.411.518.518,0,0,1,.5.436l1.482,9.267h8.352a.517.517,0,0,1,0,1.034H20.69a.517.517,0,0,1-.511-.436l-1.11-6.941-1.494,7.109a.517.517,0,0,1-.95.158l-1.091-1.834-2.15,3.869A.52.52,0,0,1,12.931,26.55Z" transform="translate(0 -3.977)"/>
  </g>
</svg>
