<svg xmlns="http://www.w3.org/2000/svg" viewBox="0 0 27.833 30">
  <defs>
    <style>
      .cls-1 {
        fill: #5bbdc4;
      }

      .cls-2 {
        fill: #bec6c7;
      }

      .cls-3 {
        fill: #3b484a;
      }

      .cls-4 {
        fill: #4a5152;
      }

      .cls-5 {
        fill: #f3f6fa;
      }

      .cls-6 {
        fill: #fff;
      }
    </style>
  </defs>
  <g id="h_vet" transform="translate(-34 -595)">
    <g id="veterinarian" transform="translate(15.514 595)">
      <path id="Path_32" data-name="Path 32" class="cls-1" d="M79.8,356.166a11.765,11.765,0,0,0-2.7,5.658,12.415,12.415,0,0,0-.1,3.47H97.837a12.414,12.414,0,0,0-.1-3.47h0a11.764,11.764,0,0,0-2.707-5.661Z" transform="translate(-55.011 -335.294)"/>
      <path id="Path_34" data-name="Path 34" class="cls-2" d="M195.919,378.2a7.311,7.311,0,0,1-3.986,5.142,7.311,7.311,0,0,1-3.986-5.142Z" transform="translate(-159.533 -356.039)"/>
      <g id="Group_13" data-name="Group 13" transform="translate(23.696 21.129)">
        <path id="Path_35" data-name="Path 35" class="cls-3" d="M338.642,360.7a.453.453,0,0,0-.561.711,3.958,3.958,0,0,1,1.224,3.054.453.453,0,0,0,.905,0A4.85,4.85,0,0,0,338.642,360.7Z" transform="translate(-324.405 -360.601)"/>
        <path id="Path_36" data-name="Path 36" class="cls-3" d="M110.078,370.1a2.882,2.882,0,0,1,.894-2,.453.453,0,0,0-.561-.71,3.791,3.791,0,0,0-1.238,2.7,3.525,3.525,0,0,0-1.759,2.193.453.453,0,1,0,.874.237,2.618,2.618,0,0,1,1.329-1.641,2.619,2.619,0,0,1,1.329,1.641.453.453,0,1,0,.874-.237A3.524,3.524,0,0,0,110.078,370.1Z" transform="translate(-107.397 -366.9)"/>
      </g>
      <path id="Path_37" data-name="Path 37" class="cls-4" d="M57.834,3.5A1.24,1.24,0,0,0,56.6,2.479C53.514,2.512,51.525,0,45.059,0A12.9,12.9,0,0,0,31.93,12.637l1.758,1.57,11.374,1.76,11.306-1.395,1.216-1.934A22.436,22.436,0,0,0,57.834,3.5Z" transform="translate(-12.656)"/>
      <path id="Union_6" data-name="Union 6" class="cls-5" d="M-436.773-585.558h0l-.023-.042,0,0-.022-.04,0-.006-.021-.04,0-.006-.021-.041,0,0-.022-.042,0,0c-.062-.12-.122-.241-.18-.363h0l-.019-.041,0-.006-.018-.039,0-.01-.016-.035-.006-.014-.016-.035-.005-.012-.015-.035-.006-.015-.014-.033-.007-.016-.014-.032-.006-.015-.015-.034-.005-.013-.015-.036,0-.011-.016-.038,0-.006c-.024-.059-.048-.117-.071-.176l0-.01-.013-.033-.007-.018-.011-.028-.009-.022-.01-.027-.009-.023-.01-.027-.009-.023-.01-.027-.008-.023-.01-.027-.008-.023-.01-.027-.009-.024-.009-.025-.009-.026-.009-.025-.008-.024-.009-.027-.008-.023-.009-.027-.008-.024-.009-.026-.016-.05a2.524,2.524,0,0,1-.371.027,2.56,2.56,0,0,1-2.56-2.56,2.561,2.561,0,0,1,2.289-2.546c.015,1.284.165,2.576.165,2.576v.011l.106-.04h0a4.906,4.906,0,0,0,1.435-.706h0A5,5,0,0,0-434.4-595a34.642,34.642,0,0,0,7.8.845,34.656,34.656,0,0,0,7.8-.845,5.014,5.014,0,0,0,3.553,5.027l.106.031h0s.15-1.292.165-2.576a2.561,2.561,0,0,1,2.289,2.546,2.559,2.559,0,0,1-2.56,2.56,2.526,2.526,0,0,1-.372-.027,11.442,11.442,0,0,1-10.985,7.773A11.558,11.558,0,0,1-436.773-585.558Z" transform="translate(459 603.3)"/>
      <g id="Group_17" data-name="Group 17" transform="translate(23.347 24.443)">
        <circle id="Ellipse_11" data-name="Ellipse 11" class="cls-6" cx="0.802" cy="0.802" r="0.802" transform="translate(3.531 1.383)"/>
        <circle id="Ellipse_12" data-name="Ellipse 12" class="cls-6" cx="0.802" cy="0.802" r="0.802" transform="translate(0 1.383)"/>
        <circle id="Ellipse_13" data-name="Ellipse 13" class="cls-6" cx="1.18" cy="1.18" r="1.18" transform="translate(14.522)"/>
      </g>
    </g>
    <path id="Path_56" data-name="Path 56" class="cls-4" d="M230.79,265.65a1.929,1.929,0,0,1-1.457-.649.453.453,0,0,1,.682-.6,1.056,1.056,0,0,0,1.551,0,.453.453,0,0,1,.682.6A1.929,1.929,0,0,1,230.79,265.65Z" transform="translate(-182.874 347.233)"/>
  </g>
</svg>
