<svg xmlns="http://www.w3.org/2000/svg" viewBox="0 0 19.28 22">
  <defs>
    <style>
      .cls-1 {
        fill: #5bbdc4;
      }
    </style>
  </defs>
  <g id="menu_home_a" transform="translate(-12.135)">
    <path id="Path_8" data-name="Path 8" class="cls-1" d="M15.06,17.381c-2.976-4.392-.876-7.823-.876-7.823-.488-.144-2.049.878-2.049.878.878-3.217,5.706-5.95,5.706-5.95a5.589,5.589,0,0,0-2.048.193,9.5,9.5,0,0,1,8.779-2.388C24.718,1.462,27.109,0,27.109,0a4.509,4.509,0,0,0-.343,1.561A3.269,3.269,0,0,1,27.791.682a7.511,7.511,0,0,0,0,3.217c1.268,1.269,2.682,5.659,2.682,5.659l.538.78c.683.977.432,2.513-.245,2.877-2.535,1.369-2.781-1.121-2.781-1.121-2.1-.244-3.658-2.586-3.658-2.586C21.5,10.972,23.075,15.1,24.3,16.683c1.569,2.031.42,5.317.42,5.317S18,21.722,15.06,17.381Z"/>
  </g>
</svg>
