<svg xmlns="http://www.w3.org/2000/svg" viewBox="0 0 22.863 23">
  <defs>
    <style>
      .cls-1 {
        fill: none;
        stroke: #bec6c7;
      }
    </style>
  </defs>
  <path id="menu_vet" class="cls-1" d="M7.837,20.9A3.793,3.793,0,0,0,10.313,22c3.712,0,4.538-2.75,4.675-4.95.275-3.162,1.1-3.025,1.513-3.025.962,0,1.237.55,1.237,1.513a2.836,2.836,0,0,0-1.375,2.337,2.75,2.75,0,1,0,2.75-2.75h-.275c-.275-1.237-.962-2.475-2.475-2.475-2.2,0-2.75,1.925-2.887,3.988-.137,2.887-1.1,3.987-3.163,3.987a2.1,2.1,0,0,1-1.375-.55c-.825-.687-.687-3.163-.687-3.163,2.75,0,5.5-2.475,6.463-6.6l-.275-.137a22.47,22.47,0,0,0,.688-4.95A4.18,4.18,0,0,0,13.75,1.788a4.5,4.5,0,0,0-2.887-1.1A1.444,1.444,0,0,0,9.625,0,1.378,1.378,0,0,0,8.25,1.375,1.3,1.3,0,0,0,9.625,2.75a1.089,1.089,0,0,0,1.1-.687,3.3,3.3,0,0,1,2.063.825,2.667,2.667,0,0,1,.962,2.338,23.687,23.687,0,0,1-.687,4.813L12.787,9.9C12.375,11.413,11,14.85,8.25,14.85H6.875c-2.75,0-4.125-3.437-4.537-4.95l-.275.138a23.687,23.687,0,0,1-.688-4.813,2.667,2.667,0,0,1,.963-2.338A3.871,3.871,0,0,1,4.4,2.063a1.089,1.089,0,0,0,1.1.687A1.3,1.3,0,0,0,6.875,1.375,1.3,1.3,0,0,0,5.5,0,1.444,1.444,0,0,0,4.262.688a4.5,4.5,0,0,0-2.888,1.1A4.18,4.18,0,0,0,0,5.225a24.8,24.8,0,0,0,.688,5.088l-.275.137c.962,3.988,3.712,6.462,6.462,6.462C6.875,16.912,6.737,19.937,7.837,20.9ZM19.25,19.25a1.375,1.375,0,1,1,1.375-1.375A1.378,1.378,0,0,1,19.25,19.25Z" transform="translate(0.5 0.5)"/>
</svg>
